<?xml version="1.0" encoding="UTF-8"?>
<svg width="699px" height="68px" viewBox="0 0 699 68" version="1.1" xmlns="http://www.w3.org/2000/svg" xmlns:xlink="http://www.w3.org/1999/xlink">
    <!-- Generator: Sketch 50.2 (55047) - http://www.bohemiancoding.com/sketch -->
    <title>Workshop17 Logos Tabakhuis-41</title>
    <desc>Created with Sketch.</desc>
    <defs></defs>
    <g id="Page-1" stroke="none" stroke-width="1" fill="none" fill-rule="evenodd">
        <g id="Workshop17-Logos-Tabakhuis-41" fill-rule="nonzero">
            <g id="Group">
                <path d="M617.9,63 L626.7,63 L626.7,2.6 L617.7,2.6 L617.7,63 L617.9,63 Z M699,2.6 L654.7,2.6 L654.7,2.8 L654.7,11.6 L685.4,11.6 L663.5,63.3 L673.3,63.3 L699,2.6 Z" id="Shape" fill="#F9BA16"></path>
                <path d="M58.1,67.2 L85,3.2 L75.1,3.2 L58.5,43.4 L42.8,0.3 L26.4,43.4 L10.8,3.1 L0.9,3.1 L26.5,67.1 L42.6,24.4 L58.1,67.2 Z M157.1,33.1 C157.1,39.4 154.9,44.8 150.6,49.2 C146.3,53.6 140.9,55.7 134.6,55.7 C128.8,55.7 123.6,53.6 119.2,49.3 C114.7,45 112.5,39.6 112.5,32.9 C112.5,26.6 114.7,21.3 119,17 C123.3,12.6 128.6,10.5 134.9,10.5 C141.2,10.5 146.5,12.7 150.7,17 C155,21.3 157.1,26.7 157.1,33.1 Z M157,55.2 C163.2,49.2 166.3,41.9 166.3,33.2 C166.3,24.6 163.2,17.3 157.1,11.1 C150.9,5 143.5,2 135,2 C126.3,2 118.9,5 112.7,11.1 C106.5,17.2 103.4,24.4 103.4,32.9 C103.4,42.5 106.8,50.3 113.6,56.2 C119.8,61.6 126.8,64.3 134.5,64.3 C143.3,64.2 150.8,61.2 157,55.2 Z M202.1,30.7 L199.2,30.7 L199.2,11.6 L202.4,11.6 C210.8,11.6 215,14.7 215,20.8 C215,27.4 210.7,30.7 202.1,30.7 Z M229.1,63.2 L210.5,37.6 C214.5,36.7 217.7,34.8 220.2,31.7 C222.6,28.6 223.9,25 223.9,20.7 C223.9,15.3 221.9,10.9 218.1,7.6 C214.6,4.6 208.8,3.1 200.9,3.1 L190.3,3.1 L190.3,63.2 L199.4,63.2 L199.4,38.6 L201,38.6 L218.2,63.2 L229.1,63.2 Z M301.8,63.2 L274.4,30.3 L301.6,3.1 L289.5,3.1 L266.1,27.1 L266.1,3.1 L257,3.1 L257,63.2 L266.1,63.2 L266.1,38.3 L268,36.4 L289.7,63.1 L301.8,63.1 L301.8,63.2 Z M335.5,17.9 C335.5,15.8 336.3,14 338,12.6 C339.7,11.2 341.8,10.5 344.3,10.5 C346.4,10.5 348,10.9 349.3,11.7 C350.5,12.4 351.9,14 353.2,16.4 L360.6,12 C356.7,5.3 351.3,1.9 344.3,1.9 C339.2,1.9 334.9,3.4 331.4,6.5 C327.9,9.5 326.2,13.3 326.2,17.8 C326.2,24.5 330.3,29.6 338.6,33 L344.4,35.4 C345.9,36.1 347.2,36.7 348.3,37.4 C349.4,38.1 350.3,38.9 351,39.7 C351.7,40.5 352.2,41.4 352.5,42.4 C352.8,43.4 353,44.4 353,45.6 C353,48.5 352.1,50.9 350.2,52.8 C348.3,54.7 346,55.6 343.1,55.6 C339.5,55.6 336.8,54.3 334.9,51.7 C333.9,50.3 333.1,47.9 332.7,44.4 L323.5,46.4 C324.3,52 326.4,56.4 329.8,59.4 C333.2,62.5 337.5,64.1 342.7,64.1 C348.2,64.1 352.8,62.3 356.5,58.6 C360.2,55 362,50.4 362,44.9 C362,40.8 360.9,37.3 358.6,34.4 C356.3,31.6 352.8,29.2 347.9,27.2 L341.9,24.7 C337.7,23.2 335.5,20.8 335.5,17.9 Z M428.7,63.2 L437.8,63.2 L437.8,3.1 L428.7,3.1 L428.7,26.6 L402.7,26.6 L402.7,3.1 L393.6,3.1 L393.6,63.2 L402.7,63.2 L402.7,35.1 L428.7,35.1 L428.7,63.2 Z M517,33.1 C517,39.4 514.8,44.8 510.5,49.2 C506.2,53.6 500.8,55.7 494.5,55.7 C488.7,55.7 483.5,53.6 479.1,49.3 C474.6,45 472.4,39.6 472.4,32.9 C472.4,26.6 474.6,21.3 478.9,17 C483.2,12.6 488.5,10.5 494.8,10.5 C501.1,10.5 506.4,12.7 510.6,17 C514.8,21.3 517,26.7 517,33.1 Z M516.8,55.2 C523,49.2 526.1,41.9 526.1,33.2 C526.1,24.6 523,17.3 516.9,11.1 C510.8,5 503.4,1.9 494.8,1.9 C486.1,1.9 478.7,4.9 472.5,11 C466.3,17.1 463.2,24.3 463.2,32.8 C463.2,42.4 466.6,50.2 473.4,56.1 C479.6,61.5 486.6,64.2 494.3,64.2 C503.1,64.2 510.6,61.2 516.8,55.2 Z M579.6,20.7 C579.6,27.1 575.4,30.3 567.1,30.3 L563.7,30.3 L563.7,11.4 L566.7,11.4 C575.3,11.4 579.6,14.5 579.6,20.7 Z M588.4,20.9 C588.4,15.8 586.7,11.5 583.2,8.1 C581.2,6.2 578.9,4.8 576.3,4.1 C573.7,3.4 569.9,3.1 564.9,3.1 L554.6,3.1 L554.6,63.2 L563.7,63.2 L563.7,38.8 L567.9,38.8 C574.2,38.8 579.1,37.2 582.8,34 C586.5,30.7 588.4,26.4 588.4,20.9 Z" id="Shape" fill="#808285"></path>
            </g>
        </g>
    </g>
</svg>